# xmcd CD database file
#
# Track frame offsets:
#	150
#	18275
#	37543
#	54597
#	69726
#	81192
#	95321
#	112664
#	129327
#	144995
#	164279
#
# Disc length: 2371 seconds
#
# Revision: 0
# Processed by: cddbd v1.5.2PL0 Copyright (c) Steve Scherf et al.
# Submitted via: CDex 1.51
#
DISCID=7b09410b
DTITLE=Billy Ray Cyrus - It Won't Be The Last
DYEAR=2003
DGENRE=Country
TTITLE0=Billy Ray Cyrus - In the Heart of a Woman
TTITLE1=Billy Ray Cyrus - Talk Some
TTITLE2=Billy Ray Cyrus - Somebody New
TTITLE3=Billy Ray Cyrus - Only Time Will Tell
TTITLE4=Billy Ray Cyrus - Ain't Your Dog No More
TTITLE5=Billy Ray Cyrus - Words By Heart
TTITLE6=Billy Ray Cyrus - It Won't Be the Last
TTITLE7=Billy Ray Cyrus - Throwin' Stones
TTITLE8=Billy Ray Cyrus - Right Face Wrong Time
TTITLE9=Billy Ray Cyrus - Dreamin' in Color, Livin' in B
TTITLE10=Billy Ray Cyrus - When I'm Gone
EXTD=YEAR: 2003
EXTT0=
EXTT1=
EXTT2=
EXTT3=
EXTT4=
EXTT5=
EXTT6=
EXTT7=
EXTT8=
EXTT9=
EXTT10=
PLAYORDER=
